<?xml version="1.0" encoding="UTF-8"?>
<svg id="Layer_1" data-name="Layer 1" xmlns="http://www.w3.org/2000/svg" viewBox="0 0 234.82 29.09">
  <path d="M11.76,29.09c-3.22,0-5.99-1.13-8.3-3.39-2.31-2.26-3.47-5-3.47-8.23s1.15-5.97,3.47-8.26c2.31-2.28,5.08-3.42,8.3-3.42h6.9c0,1.28-.46,2.37-1.37,3.28-.91.9-2.01,1.35-3.29,1.35h-2.24c-1.9,0-3.52.7-4.86,2.1-1.34,1.4-2.01,3.05-2.01,4.95s.67,3.54,2.01,4.92c1.34,1.38,2.96,2.07,4.86,2.07h2.24c1.28,0,2.38.45,3.29,1.35.91.9,1.37,1.99,1.37,3.28h-6.9ZM10.13,15.11h8.53c0,1.29-.46,2.38-1.37,3.28-.91.9-2.01,1.35-3.29,1.35h-3.87c-.64,0-1.18-.22-1.63-.66s-.67-.98-.67-1.63.22-1.22.66-1.67c.44-.45.98-.67,1.65-.67Z"/>
  <path d="M43.77,29.09h-4.89v-2.62c0-1.9-.67-3.55-2.01-4.95-1.34-1.4-2.96-2.1-4.86-2.1s-3.55.69-4.89,2.08c-1.34,1.39-2.01,3.04-2.01,4.96v2.62h-4.89v-2.62c0-1.86.42-3.62,1.27-5.26s2.02-3.01,3.54-4.12c-1.51-1.11-2.69-2.47-3.54-4.11s-1.27-3.38-1.27-5.24v-1.6h4.89v1.6c0,1.92.67,3.58,2.01,4.97,1.34,1.39,2.97,2.08,4.89,2.08s3.52-.7,4.86-2.1c1.34-1.4,2.01-3.05,2.01-4.95v-1.6h4.89v1.6c0,1.86-.42,3.61-1.27,5.24s-2.01,3-3.51,4.11c1.5,1.11,2.66,2.49,3.51,4.14s1.27,3.4,1.27,5.24v2.62Z"/>
  <path d="M64.56,10.69c0-1.34.48-2.49,1.44-3.45.96-.96,2.11-1.44,3.45-1.44v11.62c0,3.22-1.16,5.98-3.46,8.26-2.31,2.28-5.08,3.42-8.3,3.42s-6.02-1.14-8.33-3.42c-2.31-2.28-3.47-5.03-3.47-8.26V5.79c1.34,0,2.49.48,3.45,1.44s1.44,2.11,1.44,3.45v6.73c0,1.92.67,3.58,2.01,4.97,1.34,1.39,2.97,2.08,4.89,2.08s3.52-.7,4.86-2.1c1.34-1.4,2.01-3.05,2.01-4.95v-6.73Z"/>
  <path d="M77,4.89v.9h6.9c3.24,0,6.02,1.13,8.34,3.39,2.32,2.26,3.48,5,3.48,8.23s-1.17,5.98-3.5,8.26c-2.33,2.28-5.11,3.42-8.33,3.42s-5.99-1.14-8.31-3.42c-2.32-2.28-3.48-5.03-3.48-8.26V0c1.34,0,2.49.48,3.45,1.44.96.96,1.44,2.11,1.44,3.45ZM90.77,17.41c0-1.92-.67-3.57-2-4.94-1.33-1.37-2.96-2.05-4.89-2.05h-6.89v6.99c0,1.92.67,3.58,2,4.97,1.33,1.39,2.96,2.08,4.89,2.08s3.55-.69,4.89-2.08,2-3.04,2-4.97Z"/>
  <path d="M109.22,29.09c-3.22,0-5.99-1.13-8.3-3.39-2.31-2.26-3.46-5-3.46-8.23s1.15-5.97,3.46-8.26,5.08-3.42,8.3-3.42h6.9c0,1.28-.46,2.37-1.37,3.28-.91.9-2.01,1.35-3.29,1.35h-2.24c-1.9,0-3.52.7-4.86,2.1s-2.01,3.05-2.01,4.95.67,3.54,2.01,4.92c1.34,1.38,2.96,2.07,4.86,2.07h2.24c1.28,0,2.38.45,3.29,1.35.91.9,1.37,1.99,1.37,3.28h-6.9ZM107.59,15.11h8.53c0,1.29-.46,2.38-1.37,3.28-.91.9-2.01,1.35-3.29,1.35h-3.87c-.64,0-1.18-.22-1.63-.66s-.67-.98-.67-1.63.22-1.22.66-1.67c.44-.45.99-.67,1.65-.67Z"/>
  <path d="M122.96,24.2c0,1.34-.48,2.49-1.44,3.45-.96.96-2.11,1.44-3.45,1.44v-11.68c0-3.22,1.16-5.96,3.48-8.23,2.32-2.26,5.09-3.39,8.31-3.39h6.87c0,1.28-.45,2.37-1.35,3.28-.9.9-2,1.35-3.28,1.35h-2.24c-1.92,0-3.55.68-4.89,2.05-1.34,1.37-2.01,3.01-2.01,4.94v6.79Z"/>
  <path d="M159.04,17.47v11.62h-11.82c-3.22,0-5.99-1.13-8.31-3.39-2.32-2.26-3.48-5-3.48-8.23s1.16-5.97,3.48-8.26,5.09-3.42,8.31-3.42,6,1.14,8.33,3.42c2.33,2.28,3.5,5.03,3.5,8.26ZM154.09,24.46v-6.99c0-1.92-.67-3.58-2-4.96-1.33-1.39-2.96-2.08-4.89-2.08s-3.56.69-4.89,2.08c-1.33,1.39-2,3.04-2,4.96s.67,3.57,2,4.94c1.33,1.37,2.96,2.05,4.89,2.05h6.89Z"/>
  <path d="M180.75,17.47c0-1.9-.67-3.55-2.01-4.95s-2.96-2.1-4.86-2.1-3.55.69-4.89,2.08c-1.34,1.39-2.01,3.04-2.01,4.96v6.73c0,1.34-.48,2.49-1.44,3.45-.96.96-2.11,1.44-3.45,1.44v-11.62c0-3.22,1.15-5.97,3.46-8.26s5.09-3.42,8.33-3.42,5.99,1.14,8.3,3.42c2.31,2.28,3.46,5.03,3.46,8.26v11.62c-1.34,0-2.49-.48-3.45-1.44-.96-.96-1.44-2.11-1.44-3.45v-6.73Z"/>
  <path d="M201.26,18.96c0,1.51.53,2.81,1.59,3.89,1.06,1.08,2.33,1.62,3.83,1.62h1.08c1.28,0,2.37.45,3.28,1.35s1.35,1.99,1.35,3.28h-6.7c-2.54,0-4.72-.89-6.54-2.66s-2.72-3.93-2.72-6.45v-4.05c0-1.51-.52-2.81-1.57-3.89-1.05-1.08-2.33-1.62-3.84-1.62h-1.02c-1.3,0-2.4-.45-3.31-1.34-.9-.89-1.35-1.99-1.35-3.29h6.7c2.54,0,4.72.89,6.52,2.66s2.71,3.93,2.71,6.45v4.05Z"/>
  <path d="M234.82,17.47v11.62h-11.82c-3.22,0-5.99-1.13-8.31-3.39-2.32-2.26-3.48-5-3.48-8.23s1.16-5.97,3.48-8.26,5.09-3.42,8.31-3.42,6,1.14,8.33,3.42c2.33,2.28,3.5,5.03,3.5,8.26ZM229.87,24.46v-6.99c0-1.92-.67-3.58-2-4.96-1.33-1.39-2.96-2.08-4.89-2.08s-3.56.69-4.89,2.08c-1.33,1.39-2,3.04-2,4.96s.67,3.57,2,4.94c1.33,1.37,2.96,2.05,4.89,2.05h6.89Z"/>
</svg>